<?xml version="1.0" encoding="UTF-8" standalone="no"?><!DOCTYPE svg PUBLIC "-//W3C//DTD SVG 1.1//EN" "http://www.w3.org/Graphics/SVG/1.1/DTD/svg11.dtd"><svg width="100%" height="100%" viewBox="0 0 512 512" version="1.1" xmlns="http://www.w3.org/2000/svg" xmlns:xlink="http://www.w3.org/1999/xlink" xml:space="preserve" xmlns:serif="http://www.serif.com/" style="fill-rule:evenodd;clip-rule:evenodd;stroke-linejoin:round;stroke-miterlimit:2;"><g id="Page-1"><g id="circle_rwanda"><path id="Rectangle-326" d="M34.248,384l443.504,0c21.782,-37.654 34.248,-81.371 34.248,-128l-512,-0c-0,46.629 12.466,90.346 34.248,128l-0,-0Z" style="fill:#e5b731;"/><path id="Rectangle-1" d="M-0,256l512,0c0,-141.385 -114.615,-256 -256,-256c-141.385,0 -256,114.615 -256,256Z" style="fill:#306fc5;"/><path id="Rectangle-1-copy" d="M477.752,384l-443.504,0c44.264,76.519 126.996,128 221.752,128c94.756,0 177.488,-51.481 221.752,-128l0,-0Z" style="fill:#57bb63;"/><path id="Triangle-1" d="M338.947,94.82l5.651,-49.73l5.651,49.73l18.33,-46.573l-7.413,49.498l29.759,-40.242l-19.971,45.893l39.16,-31.169l-31.169,39.16l45.893,-19.971l-40.242,29.759l49.498,-7.413l-46.573,18.33l49.73,5.651l-49.73,5.651l46.573,18.33l-49.498,-7.413l40.242,29.759l-45.893,-19.971l31.169,39.16l-39.16,-31.169l19.971,45.893l-29.759,-40.242l7.413,49.498l-18.33,-46.573l-5.651,49.73l-5.651,-49.73l-18.33,46.573l7.413,-49.498l-29.759,40.242l19.971,-45.893l-39.16,31.169l31.169,-39.16l-45.893,19.971l40.242,-29.759l-49.498,7.413l46.573,-18.33l-49.73,-5.651l49.73,-5.651l-46.573,-18.33l49.498,7.413l-40.242,-29.759l45.893,19.971l-31.169,-39.16l39.16,31.169l-19.971,-45.893l29.759,40.242l-7.413,-49.498l18.33,46.573Zm5.651,83.779c21.945,0 39.735,-17.79 39.735,-39.735c0,-21.945 -17.79,-39.735 -39.735,-39.735c-21.945,0 -39.735,17.79 -39.735,39.735c0,21.945 17.79,39.735 39.735,39.735c0,0 -21.945,0 0,0Zm0,-6.358c18.434,0 33.377,-14.943 33.377,-33.377c0,-18.434 -14.943,-33.377 -33.377,-33.377c-18.434,0 -33.377,14.943 -33.377,33.377c0,18.434 14.943,33.377 33.377,33.377c0,0 -18.434,0 0,0Z" style="fill:#e5b731;"/></g></g></svg>